<?xml version="1.0" encoding="UTF-8" standalone="no"?>
<!-- Created with Inkscape (http://www.inkscape.org/) -->

<svg
   xmlns:dc="http://purl.org/dc/elements/1.1/"
   xmlns:cc="http://creativecommons.org/ns#"
   xmlns:rdf="http://www.w3.org/1999/02/22-rdf-syntax-ns#"
   xmlns:svg="http://www.w3.org/2000/svg"
   xmlns="http://www.w3.org/2000/svg"
   xmlns:sodipodi="http://sodipodi.sourceforge.net/DTD/sodipodi-0.dtd"
   xmlns:inkscape="http://www.inkscape.org/namespaces/inkscape"
   width="565.64771"
   height="496.09567"
   id="svg3029"
   version="1.1"
   inkscape:version="0.48.5 r10040"
   sodipodi:docname="Neues Dokument 2">
  <defs
     id="defs3031" />
  <sodipodi:namedview
     id="base"
     pagecolor="#ffffff"
     bordercolor="#666666"
     borderopacity="1.0"
     inkscape:pageopacity="0.0"
     inkscape:pageshadow="2"
     inkscape:zoom="1.4"
     inkscape:cx="339.16035"
     inkscape:cy="238.48994"
     inkscape:document-units="px"
     inkscape:current-layer="layer1"
     showgrid="false"
     fit-margin-top="0"
     fit-margin-left="0"
     fit-margin-right="0"
     fit-margin-bottom="0"
     inkscape:window-width="1920"
     inkscape:window-height="989"
     inkscape:window-x="-6"
     inkscape:window-y="-4"
     inkscape:window-maximized="1" />
  <metadata
     id="metadata3034">
    <rdf:RDF>
      <cc:Work
         rdf:about="">
        <dc:format>image/svg+xml</dc:format>
        <dc:type
           rdf:resource="http://purl.org/dc/dcmitype/StillImage" />
        <dc:title></dc:title>
      </cc:Work>
    </rdf:RDF>
  </metadata>
  <g
     inkscape:label="Ebene 1"
     inkscape:groupmode="layer"
     id="layer1"
     transform="translate(182.82466,-141.45325)">
    <path
       style="fill:#000000;fill-opacity:1;fill-rule:evenodd;stroke:none;display:inline"
       d="m -19.272667,345.76804 -21.2132,62.62946 44.4467096,20.70813 130.3096774,-37.37565 39.39595,-12.12183 -32.32488,-19.19289 -27.07002,-11.55736 -84.192477,-16.42303 -49.35176,13.33317 z"
       id="path3630"
       sodipodi:nodetypes="ccccccccc"
       inkscape:connector-curvature="0" />
    <path
       style="fill:#000000;fill-opacity:1;fill-rule:evenodd;stroke:none;display:inline"
       d="m -37.338837,297.88154 c 43.7220896,31.16249 49.25967,31.87547 116.85994,29.80078 l -7.76246,-70.92881 -75.7383104,-7.54855 -33.3591696,48.67658 z"
       id="path3632"
       sodipodi:nodetypes="ccccc"
       inkscape:connector-curvature="0" />
    <path
       sodipodi:type="arc"
       style="fill:#000000;fill-opacity:1;stroke:#ffffff;stroke-width:1.39118087;stroke-linecap:square;stroke-linejoin:bevel;stroke-miterlimit:4;stroke-opacity:1;stroke-dasharray:none;display:inline"
       id="path2401"
       sodipodi:cx="211.72197"
       sodipodi:cy="256.27322"
       sodipodi:rx="54.666912"
       sodipodi:ry="68.97039"
       d="m 164.12383,290.19462 c -14.84905,-33.16585 -5.57617,-75.23921 20.71156,-93.97349 26.28772,-18.73427 59.63567,-7.03516 74.48472,26.1307 11.23284,25.08892 8.91942,56.34396 -5.80113,78.37512"
       transform="matrix(1.5294118,0,0,1.3513515,-255.13704,-50.980709)"
       sodipodi:start="2.6274075"
       sodipodi:end="6.9835983"
       sodipodi:open="true" />
    <path
       style="fill:#000000;fill-opacity:1;fill-rule:evenodd;stroke:#e2e2e2;stroke-width:2;stroke-linecap:butt;stroke-linejoin:miter;stroke-miterlimit:4;stroke-opacity:1;stroke-dasharray:none;display:inline"
       d="m 116.97154,360.06126 c 0,0 110.11221,-114.35506 181.08044,-100.93439 116.0624,21.94836 95.60942,137.89915 34.34519,156.57364 -48.30574,14.7245 -66.79867,-2.21828 -32.10671,-13.83658 61.63406,-14.0209 64.0439,-83.61436 -12.98438,-69.97576 -37.2517,6.59577 -73.01378,89.68011 -68.28095,96.38718"
       id="path3412"
       sodipodi:nodetypes="csscsc"
       inkscape:connector-curvature="0" />
    <path
       style="fill:#000000;fill-opacity:1;fill-rule:evenodd;stroke:#ffffff;stroke-width:2;stroke-linecap:butt;stroke-linejoin:round;stroke-miterlimit:4;stroke-opacity:1;stroke-dasharray:none;display:inline"
       d="m 148.52999,268.48877 3.41663,6.75221 18.07238,51.65128 c -11.11369,3.12304 -18.18007,5.33 -24.57762,5.83339 5.53416,-12.54879 9.1735,-42.60261 3.08861,-64.23688 z"
       id="path2832"
       sodipodi:nodetypes="ccccc"
       inkscape:connector-curvature="0" />
    <path
       style="fill:#000000;fill-opacity:1;fill-rule:evenodd;stroke:#ffffff;stroke-width:2;stroke-linecap:butt;stroke-linejoin:miter;stroke-miterlimit:4;stroke-opacity:1;stroke-dasharray:none;display:inline"
       d="m 18.102983,352.33403 c 0,0 -94.45441,-108.07943 -159.487703,-46.09064 -54.76801,52.20406 -41.49294,82.11333 -30.95162,115.98233 11.7408,37.72292 39.23283,58.72653 35.83302,87.65858 -3.3998,28.93206 6.06615,35.06257 28.07536,7.34586 21.918975,-27.60308 -10.92124,-83.32205 -12.76472,-112.21794 -3.75563,-58.86831 95.491133,-38.70908 55.958073,28.13402"
       id="path2459"
       sodipodi:nodetypes="csssssc"
       inkscape:connector-curvature="0" />
    <path
       style="fill:#000000;fill-opacity:1;fill-rule:evenodd;stroke:#ffffff;stroke-width:2;stroke-linecap:butt;stroke-linejoin:miter;stroke-miterlimit:4;stroke-opacity:1;stroke-dasharray:none;display:inline"
       d="m -12.776637,411.30158 c 0,0 -78.456522,33.27236 -3.02666,90.32572 51.06017,38.62071 -37.41968,105.38661 -33.33678,131.16358 4.11563,25.98362 116.26789,-89.58605 109.42243,-131.87914 -8.47087,-52.33533 -66.8163504,-68.22908 -14.40018,-82.91779"
       id="path3414"
       sodipodi:nodetypes="cssss"
       inkscape:connector-curvature="0" />
    <path
       style="fill:#000000;stroke:#ffffff;stroke-width:2;stroke-miterlimit:4;stroke-opacity:1;stroke-dasharray:none;display:inline"
       d="m 51.303033,557.69775 c 1.83499,-1.5685 2.53291,-2.26208 2.66333,-2.64672 0.11285,-0.33281 -0.0944,-0.64262 -2.5369,-3.79144 -3.79364,-4.89077 -20.15143,-26.4371 -23.49769,-30.95095 l -2.81848,-3.80192 0.40891,-0.83514 c 0.53256,-1.08765 0.35156,-1.39976 -1.5599,-2.68993 l -1.5207,-1.02642 -2.44858,-3.46639 c -1.34673,-1.90652 -2.45425,-3.56235 -2.46117,-3.67963 -0.007,-0.11728 0.2035,-0.36751 0.4676,-0.55606 0.89905,-0.64181 1.49284,-1.459 1.53286,-2.10951 0.0354,-0.57578 0.10882,-0.67029 0.77116,-0.99288 0.40261,-0.19609 2.47127,-1.48496 4.59702,-2.86415 4.22066,-2.73839 4.51261,-2.9931 5.68744,-4.96222 0.61344,-1.02819 0.73697,-1.14944 1.36528,-1.34008 0.55316,-0.16783 1.9871,-1.20286 7.19662,-5.1946 3.57821,-2.74175 8.146,-6.14425 10.15065,-7.5611 4.19753,-2.96674 3.95978,-2.89077 5.62322,-1.7967 1.58736,1.04404 1.87945,1.03677 3.30666,-0.0823 0.7768,-0.60908 1.32141,-1.6443 1.89867,-3.60902 0.98232,-3.34342 2.00141,-4.54739 6.63216,-7.83531 1.67179,-1.18701 3.38287,-2.4656 3.80243,-2.84133 0.69049,-0.61837 0.75299,-0.74849 0.65907,-1.37219 -0.2395,-1.59067 -2.14549,-4.0719 -3.23101,-4.20615 -0.40174,-0.0497 -0.65579,0.0844 -1.54551,0.81573 -0.70928,0.58302 -1.18044,0.86846 -1.4113,0.855 -0.25707,-0.015 -0.69026,-0.46958 -1.67763,-1.76052 -1.23851,-1.6193 -1.41519,-1.78449 -2.5407,-2.37545 -1.62733,-0.85444 -2.24377,-0.85193 -3.47644,0.0142 -0.83246,0.58494 -0.9842,0.77108 -1.07832,1.32263 -0.13063,0.76561 0.37209,2.18603 1.40267,3.96322 0.65852,1.13559 0.73955,1.40178 0.66072,2.17064 l -0.0898,0.87633 -3.48454,2.92003 c -4.31943,3.61968 -9.42311,7.22708 -18.26917,12.91305 -8.4358,5.42227 -8.06039,5.23884 -11.6008,5.66813 -0.7401,0.0897 -1.72206,0.35651 -2.18212,0.59284 -1.25098,0.64259 -9.977,6.40454 -12.27706,8.10676 -1.1038304,0.81692 -5.0119504,3.57631 -8.6847204,6.13198 -8.93876,6.21998 -7.89335,5.48167 -18.4252496,13.01252 l -9.32503,6.66787 -0.72071,-0.20224 c -0.66466,-0.1865 -0.81876,-0.14467 -1.98111,0.53781 l -1.2604,0.74004 -0.47928,-0.40826 c -0.62439,-0.53187 -0.91832,-0.43613 -1.38819,0.45219 -0.26502,0.50105 -0.56615,0.81657 -0.963,1.00908 -0.4611,0.22367 -0.73049,0.57702 -1.33745,1.75434 -0.41802,0.81083 -0.80895,1.69406 -0.86873,1.96272 -0.10236,0.45996 -0.71104,0.91831 -10.41836,7.84546 l -10.30965,7.35698 -0.70626,-0.099 c -0.67994,-0.0953 -0.76569,-0.0556 -2.30191,1.06555 -0.87761,0.6405 -3.00264,2.27364 -4.72227,3.62919 l -3.12659,2.46463 -0.20911,0.90931 c -0.17615,0.76599 -0.32357,0.98975 -0.93537,1.41964 -1.42433,1.00083 -2.50159,4.10181 -2.31949,6.67685 0.16761,2.37006 1.23395,5.92121 2.55874,8.52122 1.03479,2.03083 1.02036,1.92157 0.3525,2.66825 -0.33106,0.37015 -2.96125,2.99064 -5.84484,5.82333 -2.8836,2.83268 -9.20196,9.10837 -14.040778,13.94598 -13.339075,13.33574 -16.323175,16.27726 -18.720655,18.45349 -2.21205,2.00793 -3.96522,3.35885 -4.54936,3.50558 -0.41218,0.10355 -4.35669,-2.01997 -7.98834,-4.30049 -2.29876,-1.44353 -2.95708,-1.77756 -3.23084,-1.63934 -0.54163,0.27348 -0.23365,1.24038 0.8624,2.70751 1.05801,1.41623 2.4636,2.51315 5.91608,4.61697 1.87151,1.14043 4.1646,2.76528 6.13429,4.34668 0.50479,0.40527 1.74966,2.07107 4.92741,6.59347 l 4.251985,6.05119 0.75802,0.3223 c 0.7663,0.32585 2.21387,0.41411 2.57938,0.15728 0.15373,-0.10803 -0.08769,-0.53952 -1.06631,-1.90593 -1.72915,-2.4144 -6.988435,-10.27747 -7.203235,-10.76946 -0.39159,-0.89693 1.58578,-3.35078 7.653585,-9.4978 1.63357,-1.6549 3.28625,-3.42734 3.67262,-3.93875 1.03094,-1.36464 2.21844,-2.5957 12.485398,-12.94355 9.93683,-10.0151 17.14493,-17.13078 17.86793,-17.6388 0.32212,-0.22635 0.82691,-0.25991 1.86481,-0.12398 0.92096,0.12061 2.22144,0.064 3.68551,-0.1605 2.64563,-0.40562 3.2242,-0.25214 4.19453,1.11264 0.70597,0.99293 0.72974,1.28347 0.95682,11.69501 0.16133,7.39656 0.28488,8.15776 1.55056,9.55281 0.93164,1.02687 1.37756,1.30958 2.37097,1.50316 1.2924,0.25183 2.02125,0.14488 4.94802,-0.72614 4.51175,-1.34273 5.15853,-1.7377 5.73755,-3.50373 0.30091,-0.91779 0.19694,-1.61799 -0.47176,-3.17705 -0.29818,-0.69521 -0.62528,-1.71501 -0.72687,-2.26621 -0.28671,-1.55567 -0.55134,-15.03826 -0.30721,-15.65261 0.29696,-0.74728 0.9932,-1.16166 3.2369,-1.92647 2.40179,-0.8187 3.8609,-1.66448 6.02635,-3.4932 2.06559,-1.74439 2.7454,-2.58029 3.28782,-4.04279 0.51653,-1.39269 0.48874,-2.67658 -0.10016,-4.62663 -0.76517,-2.53373 -0.88009,-3.43641 -0.59048,-4.63807 0.46411,-1.92573 1.98543,-3.51432 3.54657,-3.70337 0.60803,-0.0736 0.80521,-0.17576 1.03485,-0.53606 0.62234,-0.97641 3.16156,-3.11934 7.10194,-5.99356 4.53309,-3.30657 6.4417996,-4.44915 8.6808796,-5.19646 0.80539,-0.26883 2.22392,-0.89054 3.15227,-1.3816 1.76537,-0.93381 1.61396,-0.80781 4.56912,-3.80276 2.18846,-2.21793 2.72793,-5.21569 1.52946,-8.49908 -0.30867,-0.84566 -0.51576,-1.56948 -0.46021,-1.60851 0.0555,-0.039 0.6805,-0.0163 1.38877,0.0505 1.86542,0.17598 2.40988,0.0565 3.82923,-0.84062 0.68851,-0.43516 1.55442,-0.8671 1.92423,-0.95986 0.36982,-0.0928 0.9496704,-0.27487 1.2885704,-0.40468 0.53194,-0.20377 0.69002,-0.16676 1.1564,0.27072 0.66557,0.62431 1.81386,2.81247 1.83616,3.49895 0.0325,1.00087 1.02166,1.8428 1.64797,1.40272 0.19489,-0.13695 0.48832,-0.21255 0.65204,-0.16803 0.6287,0.171 6.7376,8.03206 20.52638,26.41376 6.79245,9.05498 8.92848,11.76793 9.31938,11.83643 0.35284,0.0618 3.9314,-2.35393 5.60091,-3.781 z m -87.5535,7.41259 c -1.79527,0.23845 -3.18111,-0.34036 -4.21579,-1.76078 -0.83286,-1.14337 -0.97398,-1.94549 -0.55599,-3.16039 0.49915,-1.45075 0.61746,-1.44416 2.52962,0.14094 1.52629,1.26523 2.8262,1.89765 3.9341,1.91395 0.87956,0.0129 1.74653,-0.38393 1.72265,-0.78859 -0.007,-0.1146 -0.48809,-0.46277 -1.06962,-0.77374 -1.76536,-0.94397 -2.25767,-1.4084 -2.812,-2.65269 -0.26594,-0.59698 -0.47332,-1.21969 -0.46082,-1.38382 0.0323,-0.42489 1.8426,-1.65284 3.01855,-2.04755 2.42233,-0.81309 5.78761,1.00261 5.79625,3.12731 0.008,2.05325 -0.62844,2.84116 -4.33558,5.36441 -2.38468,1.62314 -2.94136,1.93992 -3.55137,2.02095 z"
       id="path3624"
       inkscape:connector-curvature="0" />
    <path
       style="fill:#000000;fill-opacity:1;fill-rule:evenodd;stroke:#ffffff;stroke-width:2;stroke-linecap:butt;stroke-linejoin:miter;stroke-miterlimit:4;stroke-opacity:1;stroke-dasharray:none;display:inline"
       d="m -55.133077,365.97109 c 0,0 -46.838323,75.86697 -12.76425,160.99323 27.95521,69.83971 98.43566,53.46034 74.9345896,43.94996 -53.3420396,-21.58638 -41.7100796,-71.43855 -37.3995396,-92.24221 9.09547,-44.00806 15.12911,-57.22334 31.1122696,-67.75123"
       id="path2461"
       sodipodi:nodetypes="cssss"
       inkscape:connector-curvature="0" />
    <path
       style="fill:#000000;fill-opacity:1;fill-rule:evenodd;stroke:#ffffff;stroke-width:2;stroke-linecap:butt;stroke-linejoin:miter;stroke-miterlimit:4;stroke-opacity:1;stroke-dasharray:none;display:inline"
       d="m 207.0015,401.32643 c 0,0 65.65992,23.73858 31.31473,96.97464 -34.34519,73.23606 -73.74114,119.70308 -78.28682,90.40866 -4.54569,-29.29442 35.86041,-75.76144 16.66751,-137.88582 -19.19289,-62.12438 -19.19289,-62.12438 -19.19289,-62.12438"
       id="path3420"
       sodipodi:nodetypes="csssc"
       inkscape:connector-curvature="0" />
    <path
       style="fill:#000000;fill-opacity:1;fill-rule:evenodd;stroke:#ffffff;stroke-width:2;stroke-linecap:butt;stroke-linejoin:miter;stroke-miterlimit:4;stroke-opacity:1;stroke-dasharray:none;display:inline"
       d="m 149.4228,380.6183 c 52.24131,-50.37555 125.19638,40.6336 52.02286,85.35789 -25.17217,15.38545 -65.69079,13.57575 -60.60915,60.10408 1.53692,14.07228 -52.288387,-36.99968 -0.50508,-63.13453 54.31301,-27.41158 8.03031,-56.42972 -14.2501,-59.92623 -11.99697,-1.88271 -70.851907,11.73788 -81.647857,15.44888"
       id="path3418"
       sodipodi:nodetypes="csssss"
       inkscape:connector-curvature="0" />
    <path
       style="fill:#000000;fill-opacity:1;fill-rule:evenodd;stroke:#ffffff;stroke-width:2;stroke-linecap:butt;stroke-linejoin:round;stroke-miterlimit:4;stroke-opacity:1;stroke-dasharray:none;display:inline"
       d="m 88.667413,143.27677 c -50.20607,-6.72241 -96.4094104,28.57262 -103.13248,78.78355 l -2.06932,15.45459 c -0.97555,7.28586 -0.97555,7.28586 -10.32436,21.04781 l -17.11377,24.7258 5.84904,15.73421 26.46259,-38.48774 c 9.3097896,-13.70451 9.3097896,-13.70451 17.7433896,-12.57527 L 141.98305,266.15631 c 7.25421,0.97131 7.25421,0.97131 13.13979,18.12601 l 14.89616,42.60994 9.3098,-13.7045 -9.46248,-28.08634 c -5.47023,-15.94408 -5.47023,-15.94408 -4.49151,-23.25352 l 2.06615,-15.43102 c 6.72307,-50.21092 -28.56749,-96.41769 -78.773547,-103.14011 z"
       id="path2387"
       sodipodi:nodetypes="cccccccccccccccc"
       inkscape:connector-curvature="0" />
  </g>
</svg>
